<?xml version="1.0" encoding="UTF-8"?>
<svg id="_图层_2" data-name="图层_2" xmlns="http://www.w3.org/2000/svg" viewBox="0 0 180.92 29.75">
  <defs>
    <style>
      .cls-1 {
        fill: none;
        stroke: #231815;
        stroke-miterlimit: 10;
        stroke-width: .5px;
      }
    </style>
  </defs>
  <g id="_图层_1-2" data-name="图层_1">
    <g>
      <path class="cls-1" d="M26.92,29.03h-6.33l-2.04-6.24h-9.9l-2,6.24H.36L10.32,1.8h6.82l9.77,27.23ZM17.18,18.3l-3.09-9.44c-.2-.6-.34-1.39-.42-2.37h-.16c-.07.8-.23,1.56-.47,2.3l-3.11,9.51h7.26Z"/>
      <path class="cls-1" d="M35.48,26.69v2.34h-5.68V.25h5.68v12.3h.07c1.49-2.3,3.61-3.45,6.36-3.45,2.45,0,4.37.86,5.76,2.57s2.08,4.07,2.08,7.08c0,3.22-.8,5.82-2.39,7.79s-3.71,2.95-6.35,2.95c-2.41,0-4.24-.94-5.47-2.81h-.07ZM35.39,20.62c0,1.28.38,2.35,1.14,3.22s1.73,1.3,2.9,1.3c1.42,0,2.52-.55,3.31-1.65s1.19-2.66,1.19-4.68c0-1.68-.36-2.99-1.08-3.93s-1.75-1.42-3.08-1.42c-1.27,0-2.31.47-3.14,1.42s-1.24,2.17-1.24,3.66v2.07Z"/>
      <path class="cls-1" d="M52.62,19.39c0-3.2.96-5.71,2.87-7.54s4.49-2.74,7.73-2.74,5.61.9,7.45,2.7,2.76,4.22,2.76,7.25c0,3.19-.94,5.72-2.83,7.61s-4.44,2.83-7.66,2.83-5.67-.91-7.53-2.72-2.79-4.27-2.79-7.39ZM58.37,19.32c0,3.88,1.58,5.82,4.75,5.82s4.55-1.99,4.55-5.98-1.53-5.7-4.59-5.7c-1.49,0-2.65.51-3.47,1.53s-1.24,2.46-1.24,4.32Z"/>
      <path class="cls-1" d="M95.61,29.03h-5.64v-2.97h-.09c-1.45,2.3-3.44,3.45-5.96,3.45-4.52,0-6.79-2.73-6.79-8.19v-11.72h5.68v11.2c0,2.91,1.14,4.36,3.41,4.36,1.14,0,2.04-.4,2.72-1.2s1.02-1.88,1.02-3.23v-11.13h5.64v19.44Z"/>
      <path class="cls-1" d="M112.21,28.8c-.86.47-2.15.7-3.88.7-4.12,0-6.19-2.17-6.19-6.5v-9.18h-3.2v-4.24h3.2v-4.27l5.64-1.62v5.89h4.43v4.24h-4.43v8.19c0,2.07.82,3.11,2.46,3.11.63,0,1.29-.19,1.97-.56v4.24Z"/>
      <path class="cls-1" d="M151.88,29.03V12.5c0-1.52.08-3.44.23-5.75h-.14c-.35,1.75-.63,2.91-.84,3.5l-6.71,18.77h-4.62l-6.8-18.6c-.16-.45-.45-1.67-.86-3.67h-.16c.15,2.29.23,4.58.23,6.87v15.4h-5.24V1.8h8.44l5.87,16.45c.49,1.36.83,2.64,1,3.83h.12c.36-1.49.74-2.78,1.12-3.87l5.89-16.42h8.21v27.23h-5.73Z"/>
      <path class="cls-1" d="M180.67,20.9h-12.8c.2,3.01,2.02,4.52,5.45,4.52,2.14,0,4.04-.53,5.68-1.58v4.17c-1.77,1-4.09,1.49-6.96,1.49-3.09,0-5.5-.87-7.22-2.62s-2.58-4.18-2.58-7.29.91-5.63,2.74-7.57,4.12-2.91,6.89-2.91,4.91.83,6.46,2.5,2.33,3.96,2.33,6.88v2.41ZM175.38,17.35c0-2.91-1.18-4.36-3.53-4.36-.97,0-1.83.4-2.58,1.2s-1.22,1.85-1.41,3.16h7.52Z"/>
    </g>
  </g>
</svg>