<svg width="121" height="134" viewBox="0 0 121 134" fill="none" xmlns="http://www.w3.org/2000/svg">
<path d="M31.297 133.36L0.0976562 15.5227L40.301 4.59415C81.642 -6.62843 107.371 6.92198 117.513 45.2209C122.329 63.427 120.417 79.6237 111.752 93.7867C103.087 107.95 89.6295 117.531 71.331 122.48L31.2728 133.335L31.297 133.36ZM30.3289 29.3181L50.6363 106.087L64.1665 102.412C75.9298 99.2265 84.2319 93.1497 89.0728 84.2304C93.9136 75.3111 94.7124 64.7992 91.5174 52.6699C88.3224 40.5407 82.4892 32.7731 73.7272 28.093C64.9652 23.4373 54.9931 22.6287 43.7623 25.6671L30.3047 29.3181H30.3289Z" fill="#231815"/>
</svg>
