<svg width="57" height="62" viewBox="0 0 57 62" fill="none" xmlns="http://www.w3.org/2000/svg">
<path d="M52.9888 41.5921L16.5985 31.9795C14.8691 40.57 18.896 46.1429 28.6544 48.7225C34.7565 50.3286 40.5375 50.2799 45.9973 48.5521L42.835 60.2089C37.0541 61.669 30.0626 61.3283 21.91 59.1625C13.1151 56.8506 6.93884 52.5918 3.38134 46.4106C-0.176167 40.2537 -0.744379 32.8069 1.62729 24.0704C3.99896 15.3339 8.51995 8.98233 15.1903 4.94261C21.8606 0.87855 29.1238 -0.119213 36.98 1.94932C44.8361 4.01785 50.2959 7.96023 53.4334 13.8008C56.571 19.6413 57.0404 26.65 54.8169 34.8268L52.9888 41.5678V41.5921ZM40.661 27.6721C42.8845 19.544 40.6363 14.5795 33.9413 12.803C31.1743 12.073 28.4321 12.5353 25.6899 14.2145C22.9476 15.8937 20.823 18.4976 19.2913 22.0262L40.6857 27.6721H40.661Z" fill="#231815"/>
</svg>
