<svg width="101" height="142" viewBox="0 0 101 142" fill="none" xmlns="http://www.w3.org/2000/svg">
<path d="M98.0903 75.4814C102.312 91.1465 101.064 104.404 94.3994 115.253C87.7347 126.102 75.9718 133.776 59.1372 138.274C47.7195 141.317 38.187 142.111 30.5929 140.656L24.9371 119.619C35.0803 122.371 44.6128 122.53 53.5346 120.148C62.4563 117.767 68.6166 113.586 72.334 107.579C76.0514 101.546 76.7683 94.3748 74.5379 86.0395L72.6526 79.0272L72.2809 79.1331C68.9087 90.3262 61.3146 97.4972 49.5251 100.646C38.8774 103.504 29.3183 101.996 20.8745 96.1213C12.4307 90.2468 6.50942 80.9589 3.0841 68.2575C-0.739511 54.0742 -0.261559 41.7962 4.54451 31.4498C9.32403 21.1034 17.4758 14.3823 28.9466 11.3392C39.3553 8.56078 48.2505 10.5189 55.6057 17.2136L55.9774 17.1078L53.269 7.05249L77.9101 0.463623L98.0903 75.4814ZM63.3857 43.7279C61.8722 38.1445 58.9248 33.8843 54.4905 30.9471C50.0561 28.0098 45.2766 27.2425 40.1254 28.6185C34.0979 30.2326 29.9822 33.8578 27.7517 39.4941C25.5213 45.1303 25.5478 52.1955 27.8314 60.6896C29.8228 68.0723 33.0623 73.4174 37.5763 76.7516C42.0903 80.0857 47.1088 81.0383 52.6849 79.53C58.261 78.0217 62.2705 74.6611 64.6337 69.3953C66.9969 64.1295 67.2359 58.0434 65.3772 51.137L63.3857 43.7279Z" fill="#231815"/>
</svg>
