<svg width="98" height="105" viewBox="0 0 98 105" fill="none" xmlns="http://www.w3.org/2000/svg">
<path d="M77.833 102.831C66.8586 105.731 54.4281 105.359 40.5685 101.688C25.0641 97.5911 14.0088 90.063 7.37564 79.1034C0.769419 68.1439 -0.52486 55.1892 3.51976 40.2927C7.64528 25.1568 15.9233 14.1706 28.3538 7.28098C40.7842 0.417945 55.0752 -0.8855 71.1998 3.37065C81.581 6.11054 90.2635 9.96767 97.2202 14.8888L91.9622 34.2809C85.5987 27.9499 76.9701 23.3479 66.1036 20.475C56.7201 18.0011 48.3072 19.012 40.8382 23.5075C33.3691 28.0031 28.2998 35.1853 25.6304 45.0543C22.9609 54.9232 23.3924 63.6217 27.1404 70.6177C30.8614 77.6138 37.2789 82.3221 46.3658 84.7428C51.7586 86.1793 56.4234 86.5251 60.3063 85.7803L65.6452 66.069L45.9883 60.8818L50.4374 44.4691L90.8297 55.136L77.86 102.858L77.833 102.831Z" stroke="#231815" stroke-width="0.5" stroke-miterlimit="10"/>
</svg>
