<svg width="65" height="145" viewBox="0 0 65 145" fill="none" xmlns="http://www.w3.org/2000/svg">
<path d="M32.3041 11.3634C33.4354 7.12784 35.8489 4.10241 39.5445 2.26194C43.2402 0.421474 47.4135 0.118931 52.0896 1.35431C56.7657 2.5897 60.3859 5.03525 62.6234 8.53971C64.8609 12.0442 65.4391 15.8512 64.3329 19.9607C63.2268 24.0702 60.7881 27.1965 57.0171 29.1378C53.2712 31.1044 49.0476 31.4573 44.3715 30.1967C39.6954 28.9361 36.3266 26.541 34.0639 22.9357C31.8013 19.3304 31.1979 15.473 32.3041 11.3634ZM0.878662 137.171L26.1699 42.4749L53.6483 49.862L28.3571 144.558L0.878662 137.171Z" fill="#231815"/>
</svg>
