<svg width="49" height="63" viewBox="0 0 49 63" fill="none" xmlns="http://www.w3.org/2000/svg">
<path d="M7.31624 49.0231C13.5884 50.853 19.3335 51.0622 24.4988 49.7028C31.0081 47.9774 33.8016 45.3893 32.8529 41.9385C32.1941 39.4811 28.9526 38.1478 23.1284 37.9387C15.8548 37.6511 10.6368 36.5792 7.448 34.7231C4.25922 32.867 2.07186 29.7561 0.912305 25.4425C-0.510791 20.1879 0.517 15.4823 4.02203 11.3517C7.50071 7.22124 12.7451 4.24099 19.7024 2.38487C24.6569 1.02547 29.6114 0.476473 34.5922 0.711756L37.9128 12.9987C33.0637 11.6655 28.1092 11.6655 23.0494 12.9987C20.5458 13.6523 18.6483 14.6457 17.357 15.9267C16.0656 17.2338 15.6176 18.5932 16.0129 20.0572C16.6718 22.5146 19.4916 23.9001 24.4461 24.1877C29.7695 24.5014 33.828 24.9981 36.6478 25.6778C39.4677 26.3575 41.8131 27.5862 43.6842 29.4162C45.5553 31.2462 46.873 33.5729 47.6373 36.3963C49.1394 41.9123 48.0589 46.801 44.4221 51.036C40.7853 55.2711 35.2511 58.3821 27.793 60.3689C21.9425 61.9375 16.2765 62.4342 10.7949 61.9375L7.28988 48.9969L7.31624 49.0231Z" fill="#231815"/>
</svg>
