<svg width="240" height="223" viewBox="0 0 240 223" fill="none" xmlns="http://www.w3.org/2000/svg">
<path d="M239.781 0.0819619L240 183.239L199.365 194.086L140.139 90.4313C136.959 84.8032 134.354 78.7654 132.298 72.2904L131.859 72.3997C133.175 80.2407 133.833 86.825 133.833 92.0978L133.915 211.544L91.7171 222.8L0 64.0942L40.0868 53.3845L96.7074 162.448C99.1751 167.23 101.67 173.431 104.193 181.027L104.961 180.808C103.699 174.688 103.069 167.776 103.069 160.126L103.946 36.2818L142.826 25.9L203.231 134.909C205.644 139.226 208.194 145.018 210.853 152.258L211.402 152.121C209.976 145.646 209.153 139.171 208.907 132.669L202.6 9.91739L239.698 0L239.781 0.0819619Z" fill="#231815"/>
</svg>
