<svg width="721" height="213" viewBox="0 0 721 213" fill="none" xmlns="http://www.w3.org/2000/svg">
<path d="M29.6579 192.479L17.9747 195.619C20.0021 202.28 19.0898 208.029 15.263 212.841L10.5745 210.815C14.0465 206.662 15.0095 202.002 13.4636 196.835L1.62833 200.001L0.538574 195.949L28.5935 188.427L29.6832 192.479H29.6579ZM20.9652 186.223L2.74343 191.111L1.65367 187.084L19.8754 182.196L20.9652 186.223ZM26.2873 184.298L24.1584 186.375C22.3844 184.248 20.9398 182.728 19.8754 181.791L21.7255 180.018C23.1954 181.158 24.716 182.602 26.2873 184.298ZM29.075 181.639L26.9715 183.817C25.5523 182.323 24.0571 180.955 22.4858 179.689L24.4372 177.891C26.3886 179.334 27.9346 180.575 29.0497 181.639H29.075Z" fill="#231815"/>
<path d="M62.3503 181.816L55.0007 183.792C56.2172 188.579 56.2426 192.454 55.0768 195.467C53.911 198.481 51.5034 201.444 47.854 204.382L44.1792 201.14C47.2964 198.937 49.3746 196.607 50.439 194.125C51.5034 191.643 51.5287 188.579 50.515 184.982L43.799 186.78L45.6744 193.796L41.214 194.986L39.3386 187.971L32.9268 189.693L31.7864 185.463L38.1982 183.741L36.3482 176.878L40.8086 175.687L42.6586 182.551L49.4506 180.727L47.3471 172.902L51.8075 171.711L53.911 179.537L61.2352 177.587L62.3756 181.816H62.3503ZM58.9289 175.536L57.1803 177.967C56.0905 176.954 54.6713 175.89 52.9733 174.801L54.5192 172.547C55.9891 173.408 57.459 174.396 58.9289 175.536ZM61.1338 172.446L59.3851 174.852C57.9659 173.712 56.5467 172.674 55.1528 171.762L56.6734 169.483C58.2193 170.344 59.6892 171.331 61.1084 172.446H61.1338Z" fill="#231815"/>
<path d="M88.074 164.493C86.8829 168.115 85.1595 171.559 82.8787 174.852L87.7445 193.036L83.2588 194.252L79.3306 179.562C76.6189 182.551 73.6791 185.311 70.5619 187.819L66.9631 184.653C71.8544 180.753 75.5291 177.156 77.9874 173.915C80.4457 170.673 82.3465 167.001 83.6896 162.898L88.0994 164.493H88.074Z" fill="#231815"/>
<path d="M125.962 161.353C124.745 166.975 122.819 171.635 120.184 175.333C117.548 179.031 112.935 182.45 106.321 185.641L103.229 181.766C108.779 179.436 112.91 176.7 115.647 173.509C118.384 170.318 120.285 165.937 121.4 160.314L125.962 161.353ZM110.731 164.063L108.754 168.242C105.51 166.57 102.367 165.202 99.3008 164.164L100.948 160.188C103.939 161.023 107.183 162.315 110.731 164.063Z" fill="#231815"/>
<path d="M137.797 151.501C137.671 157.326 138.254 162.67 139.546 167.532C140.458 170.926 141.7 173.991 143.297 176.701L139.293 178.853C137.569 175.89 136.201 172.522 135.187 168.723C133.793 163.48 133.134 157.807 133.21 151.703L137.772 151.501H137.797ZM165.421 167.254L163.799 171.255C161.443 170.192 159.288 169.407 157.337 168.9C157.337 170.394 156.881 171.762 155.968 173.028C155.056 174.295 153.713 175.156 151.914 175.637C150.114 176.118 148.416 176.017 146.946 175.333C145.476 174.649 144.488 173.408 144.032 171.635C143.626 170.09 143.854 168.596 144.741 167.203C145.628 165.81 146.946 164.873 148.67 164.417C149.582 164.164 150.672 164.037 151.964 163.987C151.761 162.999 151.508 161.986 151.229 160.948C150.95 159.909 150.646 158.871 150.317 157.807C147.2 158.643 144.235 159.681 141.421 160.922L139.85 157.123C142.689 155.933 145.755 154.869 149.075 153.881C148.416 151.627 147.707 149.5 146.946 147.499L151.128 145.878C151.99 148.208 152.75 150.488 153.409 152.716C156.349 151.881 158.655 151.323 160.353 151.02L161.164 155.046C159.618 155.3 157.438 155.806 154.651 156.566C155.462 159.377 156.146 161.986 156.703 164.392C159.795 165.025 162.71 165.962 165.472 167.203L165.421 167.254ZM152.775 168.469C151.837 168.317 150.925 168.393 150.013 168.621C149.252 168.824 148.746 169.128 148.492 169.533C148.239 169.938 148.163 170.318 148.264 170.673C148.518 171.61 149.354 171.863 150.773 171.483C152.192 171.103 152.877 170.09 152.801 168.469H152.775Z" fill="#231815"/>
<path d="M177.51 167.152L175.077 171.281C173.024 169.964 170.363 168.469 167.069 166.773L169.4 162.923C171.656 163.86 174.367 165.278 177.535 167.152H177.51Z" fill="#231815"/>
<path d="M205.894 129.29L210.557 128.049C211.191 130.353 211.698 132.633 212.053 134.836C216.31 144.359 222.722 149.677 231.212 150.741C230.046 153.172 229.235 155.046 228.779 156.363C222.266 154.996 216.868 151.121 212.636 144.739C212.053 151.602 209.164 157.807 203.968 163.328C203.005 162.34 201.51 161.099 199.508 159.631C203.563 155.629 206.148 151.399 207.237 146.942C208.327 142.485 207.871 136.609 205.869 129.29H205.894Z" fill="#231815"/>
<path d="M253.514 131.164C252.399 133.975 251.284 136.66 250.194 139.243C251.233 139.623 252.424 140.104 253.717 140.661L251.892 144.941C248.648 143.422 244.999 142.079 240.944 140.965L242.743 136.938C244.036 137.293 245.024 137.546 245.708 137.749C246.393 136.457 247.102 134.785 247.837 132.683L241.806 134.304C240.158 138.787 238.688 142.13 237.37 144.333L232.986 142.459C235.748 137.976 237.953 132.227 239.601 125.212L244.238 125.516C243.934 126.884 243.605 128.175 243.25 129.442L252.424 126.985L253.539 131.164H253.514Z" fill="#231815"/>
<path d="M278.731 119.615C279.313 124.554 279.364 128.58 278.883 131.696C278.401 134.811 277.844 136.913 277.159 138.002C276.475 139.091 275.537 139.8 274.346 140.129C272.547 140.61 270.722 140.129 268.872 138.711C267.022 137.293 265.729 135.216 265.02 132.557C264.006 128.808 264.538 125.136 266.566 121.54C268.593 117.943 271.787 115.563 276.146 114.398C279.998 113.359 283.394 113.638 286.333 115.233C289.273 116.829 291.199 119.26 292.086 122.553C292.973 125.845 292.644 128.758 291.225 131.746C289.806 134.735 287.727 137.343 284.965 139.572L281.087 136.811C286.764 132.329 289.045 127.947 287.879 123.692C287.322 121.59 286.029 120.045 284.053 119.032C282.076 118.019 279.719 117.918 277.033 118.627C276.374 118.804 275.715 119.032 275.081 119.311L278.705 119.666L278.731 119.615ZM274.219 119.741C272.217 120.907 270.773 122.603 269.911 124.857C269.049 127.111 268.923 129.391 269.531 131.645C269.81 132.709 270.317 133.671 271.001 134.532C271.685 135.393 272.293 135.773 272.826 135.646C273.079 135.57 273.307 135.419 273.485 135.165C273.662 134.912 273.915 133.924 274.194 132.202C274.473 130.48 274.625 128.58 274.65 126.554C274.676 124.528 274.524 122.249 274.245 119.741H274.219Z" fill="#231815"/>
<path d="M298.879 131.848L312.361 128.251L310.891 122.806L301.413 125.339L300.247 121.033L309.725 118.501L308.306 113.182L300.551 115.259C299.892 118.374 299.005 121.362 297.916 124.224C296.775 122.629 295.559 120.983 294.266 119.311C295.685 115.791 296.496 111.409 296.724 106.141L301.818 106.04C301.717 107.509 301.565 108.978 301.388 110.396L307.14 108.851L305.442 102.52L310.232 101.228L311.93 107.56L322.549 104.723L323.715 109.028L313.096 111.865L314.515 117.184L323.892 114.676L325.058 118.982L315.681 121.489L317.151 126.934L328.936 123.794L330.127 128.251L300.07 136.305L298.879 131.848Z" fill="#231815"/>
<path d="M328.352 105.736C330.937 106.8 333.32 107.889 335.575 108.978L333.472 113.081C330.988 111.764 328.682 110.599 326.578 109.586L328.352 105.761V105.736ZM332.23 114.372C333.827 114.55 335.398 114.651 336.893 114.651C337.02 119.691 336.994 124.022 336.741 127.669C335.094 127.593 333.497 127.542 331.976 127.567C332.23 123.946 332.306 119.539 332.205 114.347L332.23 114.372ZM327.415 97.4797C329.898 98.4674 332.103 99.4045 334.055 100.342L331.951 104.267C330.557 103.507 328.428 102.444 325.539 101.051L327.44 97.505L327.415 97.4797ZM334.764 104.495L343.761 102.089L342.747 98.3408L334.891 100.772C334.46 99.7084 333.953 98.518 333.32 97.2517C340.39 95.2003 347.081 92.9969 353.442 90.6669L354.988 94.2379C352.479 95.1243 349.869 96.0107 347.157 96.9225L348.221 100.924L357.269 98.4927L358.308 102.342L349.261 104.774L350.35 108.801L358.131 106.724L362.033 121.236L357.674 122.401L357.244 120.805L345.941 123.819L346.371 125.44L342.012 126.605L338.11 112.068L345.865 109.991L344.775 105.964L335.778 108.37L334.739 104.52L334.764 104.495ZM354.76 111.612L343.457 114.626L344.902 119.995L356.205 116.981L354.76 111.612Z" fill="#231815"/>
<path d="M366.291 89.6538C366.621 95.7321 367.33 100.848 368.471 105.052C369.231 107.939 370.397 111.181 371.968 114.828L367.558 116.652C366.19 113.157 365.05 109.687 364.137 106.319C362.541 100.316 361.73 94.7444 361.704 89.6032L366.291 89.7045V89.6538ZM392.876 106.952C390.469 107.787 388.467 108.421 386.845 108.851C380.813 110.472 375.947 110.244 372.247 108.142L374.274 104.166C376.986 105.888 380.813 106.065 385.755 104.748C387.504 104.292 389.455 103.609 391.66 102.748L392.876 106.952ZM385.958 87.7797L386.971 91.9585C384.843 92.3637 382.866 92.8196 381.016 93.3261C377.721 94.2126 374.477 95.3522 371.335 96.7199L369.915 92.541C372.703 91.3254 375.77 90.2616 379.166 89.3499C381.218 88.7927 383.474 88.2862 385.958 87.7797Z" fill="#231815"/>
<path d="M390.824 85.6776L394.397 84.7152L392.876 79.0927L397.007 77.9784L398.528 83.6008L401.24 82.8664L402.355 87.0199L399.643 87.7543L400.936 92.5663L403.647 91.1734C404.027 93.0475 404.357 94.4405 404.636 95.4029L402.076 96.8212L404.332 105.204C404.712 106.597 404.636 107.737 404.129 108.623C403.622 109.51 401.848 110.345 398.781 111.181C398.275 110.168 397.54 108.826 396.526 107.129C397.387 106.977 398.097 106.8 398.705 106.648C399.314 106.496 399.643 106.268 399.77 105.989C399.896 105.711 399.896 105.28 399.77 104.698L398.224 98.9486L395.005 100.747L393.333 96.2893L397.033 94.5165L395.512 88.8687L391.939 89.8311L390.824 85.6776ZM422.325 80.2324L414.52 82.3345L415.483 85.8802L422.503 84.006L423.542 87.881C423.085 91.3254 421.92 94.5925 420.07 97.6823C422.528 98.3154 425.189 98.6953 428.078 98.7713C427.521 100.873 427.039 102.545 426.634 103.786C423.314 103.482 420.171 102.748 417.206 101.633C415.128 104.065 412.568 106.395 409.502 108.573C408.488 107.56 407.271 106.42 405.852 105.103C408.564 103.305 410.87 101.481 412.72 99.5817C410.465 98.3408 408.31 96.8465 406.283 95.0737L409.324 91.9585C411.174 93.6554 413.278 95.0483 415.609 96.112C417.104 93.934 418.068 91.6799 418.498 89.3752L404.838 93.0222L403.774 89.0207L410.87 87.1212L409.907 83.5755L402.862 85.4496L401.823 81.6L408.868 79.7259L407.651 75.1418L412.264 73.9008L413.48 78.4849L421.286 76.3828L422.325 80.2324Z" fill="#231815"/>
<path d="M430.511 77.9023L433.73 79.0167L432.969 76.1295L436.72 75.1164L434.87 68.2024L438.976 67.1133L440.826 74.0274L444.374 73.065L445.489 77.2185L441.941 78.1809L442.727 81.0935C445.058 81.8279 447.01 82.4864 448.581 83.0943L447.136 87.5517C446.3 87.0958 445.261 86.5386 444.019 85.8802L447.339 98.2647L443.233 99.3538L439.761 86.412C439.432 89.2992 438.849 92.389 437.962 95.6815C437.354 94.2632 436.492 92.4144 435.377 90.1097C436.315 87.2478 436.898 83.7274 437.126 79.4979L434.11 80.3084C433.78 81.524 433.451 82.7144 433.045 83.9047L437.607 100.924L433.578 102.013L430.46 90.4136C430.03 91.3253 429.599 92.2117 429.117 93.0982C428.408 91.9078 427.495 90.5655 426.38 89.0713C427.951 86.0574 429.345 82.3598 430.511 77.9277V77.9023ZM427.191 69.6206L431.373 70.8616C430.384 74.3567 429.016 77.9023 427.242 81.448C426.127 80.4097 424.885 79.4473 423.592 78.5608C425.138 75.7243 426.329 72.7358 427.191 69.6206ZM442.144 67.088C443.335 68.4809 444.424 69.8232 445.438 71.1402L442.752 73.1663C441.814 71.7734 440.775 70.3551 439.635 68.9368L442.169 67.088H442.144ZM445.793 76.56L456.437 73.6982L457.502 77.6744L454.587 78.4595L457.831 90.5402C458.541 93.2248 457.831 94.9217 455.702 95.6308C454.486 96.0107 453.041 96.3906 451.318 96.8465C450.836 95.8081 450.177 94.5418 449.341 93.0222C450.786 92.7436 451.825 92.541 452.458 92.3637C453.295 92.1358 453.573 91.5279 453.295 90.4895L450.38 79.5739L446.857 80.511L445.793 76.5347V76.56ZM444.805 67.24L453.193 64.9859L454.258 68.9621L445.869 71.2162L444.805 67.24Z" fill="#231815"/>
<path d="M488.293 71.3935C485.43 72.9131 482.617 74.6606 479.854 76.6614L481.248 81.8786L476.712 83.0943L475.825 79.8272C473.24 82.1319 472.048 83.7021 472.277 84.5632C472.378 84.9178 472.581 85.1964 472.91 85.4243C473.24 85.6522 473.62 85.7282 474.051 85.6522C474.481 85.5763 475.292 85.399 476.458 85.0951C480.361 84.0567 484.036 82.689 487.457 81.0428L488.851 85.247C484.999 86.9185 481.679 88.1342 478.916 88.894C475.951 89.6791 473.899 90.0084 472.733 89.9071C471.567 89.8058 470.503 89.3246 469.565 88.5394C468.627 87.7543 467.994 86.7919 467.689 85.6269C467.461 84.7911 467.461 84.006 467.689 83.2716C467.918 82.5371 468.551 81.4734 469.616 80.0551C470.68 78.6368 472.327 77.0159 474.557 75.1671C474.304 74.6606 473.848 74.5086 473.164 74.6859C472.53 74.8632 471.466 75.5217 470.021 76.6867C468.576 77.8517 467.208 79.5992 465.966 81.9293L462.038 79.3966C464.319 77.0413 465.915 73.6729 466.802 69.3167C465.637 69.6966 463.609 70.2538 460.669 71.0389L459.073 67.1133C459.934 66.9107 460.821 66.6828 461.708 66.4548C463.66 65.923 465.611 65.3405 467.512 64.682C467.791 63.2384 467.994 61.2883 468.095 58.8823L472.859 59.2115C472.733 61.035 472.606 62.276 472.505 62.9598C475.039 62.1494 477.852 61.0857 480.893 59.7687L482.642 63.4917C479.246 65.0366 475.622 66.4295 471.77 67.6705C471.618 68.7342 471.339 69.9499 470.908 71.2669C472.124 70.6337 473.113 70.2032 473.873 70.0005C475.951 69.4434 477.523 70.1272 478.536 72.1026C481.096 70.3551 483.428 68.8355 485.607 67.5439L488.319 71.4188L488.293 71.3935Z" fill="#231815"/>
<path d="M492.196 61.8708C494.781 62.9345 497.164 64.0235 499.419 65.1126L497.316 69.2154C494.832 67.8985 492.526 66.7335 490.422 65.7204L492.196 61.8961V61.8708ZM496.048 70.4818C497.645 70.659 499.216 70.7603 500.712 70.7603C500.838 75.8003 500.813 80.1311 500.56 83.7781C498.912 83.7021 497.316 83.6515 495.795 83.6768C496.048 80.0551 496.124 75.6483 496.023 70.4564L496.048 70.4818ZM491.259 53.6144C493.742 54.6021 495.947 55.5392 497.898 56.4763L495.795 60.4019C494.401 59.6421 492.272 58.5784 489.383 57.1854L491.284 53.6397L491.259 53.6144ZM498.583 60.6298L507.58 58.2238L506.566 54.4755L498.709 56.9068C498.279 55.8431 497.772 54.6528 497.138 53.3865C504.209 51.335 510.9 49.1316 517.261 46.8016L518.807 50.3726C516.298 51.259 513.687 52.1455 510.976 53.0572L512.04 57.0588L521.088 54.6275L522.127 58.4771L513.079 60.9084L514.169 64.9353L521.949 62.8585L525.852 77.3705L521.493 78.5355L521.062 76.94L509.759 79.9538L510.19 81.5747L505.831 82.7397L501.928 68.2024L509.683 66.1256L508.593 62.0987L499.596 64.5047L498.557 60.6551L498.583 60.6298ZM518.604 67.7465L507.301 70.7603L508.745 76.1295L520.048 73.1157L518.604 67.7465Z" fill="#231815"/>
<path d="M535.609 50.6259C537.763 50.0434 539.588 50.018 541.083 50.6005C542.579 51.183 543.744 52.9812 544.581 56.0964C545.138 58.1984 545.594 60.5285 545.899 63.0864C546.203 65.6444 545.975 67.3919 545.189 68.3543C544.403 69.3167 543.466 69.9246 542.401 70.2285C540.957 70.6084 538.726 70.2791 535.761 69.1901L536.065 64.4034C536.623 64.682 537.459 64.9606 538.6 65.2392C539.74 65.5178 540.45 65.6191 540.754 65.5431C541.083 65.4418 541.286 65.1885 541.286 64.7833C541.286 64.3781 541.21 63.4157 540.982 61.9214C540.754 60.4272 540.425 58.9076 540.019 57.3374C539.664 56.0204 539.36 55.2099 539.081 54.8554C538.803 54.5008 537.89 54.5515 536.319 54.982C535.989 55.0833 535.685 55.1593 535.432 55.2606C535.204 62.0734 534.596 68.329 533.607 74.0021L529.071 72.7611C529.882 67.7212 530.414 62.4786 530.693 57.0334C529.324 57.54 527.93 58.2238 526.511 59.0595L524.99 54.83C526.815 53.9183 528.767 53.0319 530.845 52.1708C530.971 49.4355 530.997 46.3964 530.921 43.028L535.609 43.0786C535.66 45.8645 535.635 48.3971 535.609 50.6512V50.6259ZM556.543 57.2867L553.476 60.7311C549.852 56.6789 545.924 52.8293 541.692 49.1569L544.581 46.0924C548.636 49.4102 552.615 53.1585 556.543 57.2867Z" fill="#231815"/>
<path d="M586.828 42.0149L580.061 44.0663L581.151 48.0932C581.506 49.4355 581.455 50.6512 580.948 51.7149C580.441 52.7786 579.022 53.6144 576.691 54.2475C575.905 54.4501 575.043 54.6781 574.08 54.906L571.698 50.9804C572.433 50.8031 573.067 50.6512 573.599 50.5246C575.17 50.094 576.032 49.7648 576.209 49.4608C576.387 49.1569 576.437 48.9037 576.361 48.6251L575.525 45.4846L568.631 47.5614L571.115 56.8055C571.267 57.3373 571.546 57.6413 572.002 57.7172C572.458 57.7932 574.46 57.3373 578.034 56.3749C580.568 55.6911 583.052 54.9567 585.485 54.1462L586.625 58.3757C584.319 59.1102 581.987 59.794 579.605 60.4525C574.815 61.7441 571.875 62.3773 570.786 62.352C569.696 62.3266 568.834 62.0227 568.201 61.4149C567.567 60.8071 567.06 59.87 566.731 58.6543L564.12 48.929L558.114 50.8031L556.771 46.6496L562.98 44.7501L561.181 38.0387L565.717 36.823L567.466 43.3825L574.359 41.3058L572.18 33.2267L576.767 31.9857L578.895 39.8875L585.459 37.8867L586.777 42.0149H586.828Z" fill="#231815"/>
<path d="M605.481 34.5942C606.368 34.113 607.229 33.7585 608.116 33.5305C610.752 32.8214 613.109 33.1506 615.136 34.5183C617.164 35.8859 618.532 37.7854 619.166 40.1914C619.901 42.876 619.445 45.3833 617.873 47.6373C616.302 49.8914 613.92 51.4616 610.752 52.3227C608.268 52.9812 606.139 52.9052 604.365 52.1201C602.591 51.335 601.451 50.0687 601.02 48.3971C600.64 46.9535 600.843 45.5859 601.628 44.3449C602.414 43.1039 603.554 42.2681 604.999 41.8882C607.761 41.1538 610.6 42.4961 613.489 45.9405C614.908 44.7501 615.39 43.2812 614.934 41.559C614.021 38.1399 611.69 36.9243 607.939 37.9373C605.861 38.4945 604.112 39.4569 602.693 40.8245C601.274 42.1922 599.677 44.5728 597.928 47.9919L593.899 45.7125C597.649 39.6089 600.817 34.0877 603.453 29.1491C600.463 30.2888 597.852 31.1245 595.597 31.6564L593.62 27.5788C594.456 27.4016 595.293 27.199 596.154 26.971C599.525 26.0593 603.352 24.641 607.635 22.6909L610.524 25.5021C609.155 28.0854 607.483 31.1245 605.506 34.6196L605.481 34.5942ZM609.637 48.1439C608.218 46.4723 607.026 45.7632 606.089 46.0164C605.404 46.1937 605.126 46.5989 605.278 47.1815C605.404 47.688 605.861 48.0425 606.621 48.2958C607.381 48.5491 608.395 48.4731 609.611 48.1439H609.637Z" fill="#231815"/>
<path d="M640.201 23.5267C638.072 24.6663 635.968 25.6287 633.916 26.4139C634.118 35.3034 633.764 42.2175 632.801 47.1815L628.163 46.6496C629.075 41.6603 629.506 35.4807 629.405 28.1614C626.997 28.9465 625.223 29.529 624.108 29.8582L622.486 25.806C625.527 24.8943 627.783 24.1598 629.227 23.6026C629.151 21.4752 628.974 19.1452 628.746 16.6632L633.181 16.1567C633.333 17.4483 633.51 19.3478 633.713 21.8804C635.436 21.2979 637.033 20.5635 638.528 19.677L640.201 23.5773V23.5267ZM655.787 39.4316C653.379 40.546 651.225 41.3564 649.324 41.8629C645.396 42.9013 641.417 42.7494 637.413 41.3311L638.68 37.1522C641.848 38.3932 645.219 38.5452 648.716 37.6081C650.338 37.1776 652.163 36.4431 654.216 35.4047L655.787 39.4316ZM650.972 27.0723C645.548 28.5919 641.367 30.4661 638.427 32.6695L636.095 29.0478C639.466 26.5911 644.078 24.565 649.882 22.9441L650.997 27.0723H650.972Z" fill="#231815"/>
<path d="M673.07 12.9149C676.188 12.3831 678.925 12.8136 681.307 14.1813C683.689 15.5489 685.235 17.575 685.97 20.2849C687.364 25.5021 685.058 30.4155 679.001 34.9742L675.579 32.1123C678.012 30.5168 679.786 28.7692 680.902 26.8191C682.017 24.869 682.321 23.0455 681.865 21.2726C681.434 19.7024 680.521 18.5374 679.077 17.7776C677.632 17.0178 675.63 16.7899 673.096 17.1444C673.045 21.146 672.792 24.6664 672.336 27.6549C672.994 28.364 673.932 29.2251 675.098 30.2382L672.158 33.328C671.753 33.0494 671.372 32.7455 670.992 32.3909C669.903 34.7209 668.357 36.1392 666.405 36.6711C664.91 37.0763 663.516 36.823 662.198 35.9619C660.88 35.1008 659.968 33.6826 659.436 31.7324C658.523 28.364 659.182 24.641 661.362 20.6142C659.968 18.2081 658.65 15.7515 657.383 13.1682L661.235 11.446C662.097 13.2189 663.111 15.093 664.276 17.0685C665.417 15.9794 666.937 14.9917 668.813 14.1053C668.813 11.5726 668.737 9.04 668.559 6.48204L672.792 6.12747C672.969 8.43217 673.07 10.6862 673.07 12.8896V12.9149ZM667.52 29.0985C666.101 27.4776 664.986 26.0593 664.15 24.869C663.364 27.2497 663.187 29.2251 663.617 30.846C663.744 31.3272 663.972 31.7324 664.302 32.087C664.631 32.4416 665.011 32.5682 665.417 32.4416C666.152 32.239 666.861 31.1246 667.495 29.0732L667.52 29.0985ZM668.686 18.9933C667.951 19.5251 667.292 20.133 666.684 20.8168C667.14 21.5766 667.748 22.4123 668.458 23.3241C668.635 21.07 668.711 19.6264 668.661 18.9933H668.686Z" fill="#231815"/>
<path d="M693.954 1.89796C694.283 7.97629 694.993 13.0922 696.133 17.2964C696.893 20.1836 698.059 23.4254 699.63 27.0724L695.221 28.8959C693.852 25.4008 692.712 21.9311 691.799 18.5627C690.203 12.5604 689.392 6.98856 689.366 1.84731L693.954 1.94861V1.89796ZM720.539 19.2212C718.131 20.057 716.129 20.6901 714.507 21.1207C708.475 22.7416 703.609 22.5136 699.909 20.4115L701.937 16.4353C704.648 18.1575 708.475 18.3348 713.417 17.0178C715.166 16.5619 717.117 15.8781 719.322 15.017L720.539 19.2212ZM713.62 0.0491333L714.634 4.22798C712.505 4.63321 710.528 5.08908 708.678 5.59561C705.383 6.48203 702.139 7.62172 698.997 8.98934L697.578 4.81049C700.365 3.59482 703.432 2.53112 706.828 1.61937C708.881 1.06219 711.136 0.555661 713.62 0.0491333Z" fill="#231815"/>
</svg>
