<svg width="72" height="72" viewBox="0 0 72 72" fill="none" xmlns="http://www.w3.org/2000/svg">
<path d="M47.7 14.3132C47.19 14.3132 46.74 14.5832 46.47 15.0032L46.26 15.4532L30.72 50.4032C30.24 51.2732 29.94 52.2332 29.94 53.2832C29.94 56.6132 32.64 59.3132 35.97 59.3132C38.85 59.3132 41.28 57.2732 41.85 54.5432L41.88 54.4532L49.2 15.8132C49.2 14.9732 48.54 14.3132 47.7 14.3132ZM3 26.3132L9 32.3132C17.64 23.6732 29.37 20.0732 40.59 21.4532L44.16 13.4132C29.67 10.8332 14.22 15.1232 3 26.3132ZM63 32.3132L69 26.3132C64.08 21.3932 58.35 17.8532 52.23 15.6032L50.64 24.0632C55.14 25.9232 59.34 28.6532 63 32.3132ZM51 44.3132L57 38.3132C54.6 35.9132 51.9 34.0532 49.02 32.6432L47.37 41.4032C48.63 42.2132 49.86 43.1732 51 44.3132ZM15 38.3132L21 44.3132C24.39 40.9232 28.68 38.9432 33.09 38.3132L36.93 29.6732C29.04 29.4332 21.03 32.2832 15 38.3132Z" fill="#06BEE1"/>
</svg>
