<svg width="72" height="72" viewBox="0 0 72 72" fill="none" xmlns="http://www.w3.org/2000/svg">
<path d="M58.2966 38.94C58.4166 37.98 58.5066 37.02 58.5066 36C58.5066 34.98 58.4166 34.02 58.2966 33.06L64.6266 28.11C65.1966 27.66 65.3466 26.85 64.9866 26.19L58.9866 15.81C58.7166 15.33 58.2066 15.06 57.6666 15.06C57.4866 15.06 57.3066 15.09 57.1566 15.15L49.6866 18.15C48.1266 16.95 46.4466 15.96 44.6166 15.21L43.4766 7.26C43.3866 6.54 42.7566 6 42.0066 6H30.0066C29.2566 6 28.6266 6.54 28.5366 7.26L27.3966 15.21C25.5666 15.96 23.8866 16.98 22.3266 18.15L14.8566 15.15C14.6766 15.09 14.4966 15.06 14.3166 15.06C13.8066 15.06 13.2966 15.33 13.0266 15.81L7.02663 26.19C6.63663 26.85 6.81663 27.66 7.38663 28.11L13.7166 33.06C13.5966 34.02 13.5066 35.01 13.5066 36C13.5066 36.99 13.5966 37.98 13.7166 38.94L7.38663 43.89C6.81663 44.34 6.66663 45.15 7.02663 45.81L13.0266 56.19C13.2966 56.67 13.8066 56.94 14.3466 56.94C14.5266 56.94 14.7066 56.91 14.8566 56.85L22.3266 53.85C23.8866 55.05 25.5666 56.04 27.3966 56.79L28.5366 64.74C28.6266 65.46 29.2566 66 30.0066 66H42.0066C42.7566 66 43.3866 65.46 43.4766 64.74L44.6166 56.79C46.4466 56.04 48.1266 55.02 49.6866 53.85L57.1566 56.85C57.3366 56.91 57.5166 56.94 57.6966 56.94C58.2066 56.94 58.7166 56.67 58.9866 56.19L64.9866 45.81C65.3466 45.15 65.1966 44.34 64.6266 43.89L58.2966 38.94ZM52.3566 33.81C52.4766 34.74 52.5066 35.37 52.5066 36C52.5066 36.63 52.4466 37.29 52.3566 38.19L51.9366 41.58L54.6066 43.68L57.8466 46.2L55.7466 49.83L51.9366 48.3L48.8166 47.04L46.1166 49.08C44.8266 50.04 43.5966 50.76 42.3666 51.27L39.1866 52.56L38.7066 55.95L38.1066 60H33.9066L32.8566 52.56L29.6766 51.27C28.3866 50.73 27.1866 50.04 25.9866 49.14L23.2566 47.04L20.0766 48.33L16.2666 49.86L14.1666 46.23L17.4066 43.71L20.0766 41.61L19.6566 38.22C19.5666 37.29 19.5066 36.6 19.5066 36C19.5066 35.4 19.5666 34.71 19.6566 33.81L20.0766 30.42L17.4066 28.32L14.1666 25.8L16.2666 22.17L20.0766 23.7L23.1966 24.96L25.8966 22.92C27.1866 21.96 28.4166 21.24 29.6466 20.73L32.8266 19.44L33.3066 16.05L33.9066 12H38.0766L39.1266 19.44L42.3066 20.73C43.5966 21.27 44.7966 21.96 45.9966 22.86L48.7266 24.96L51.9066 23.67L55.7166 22.14L57.8166 25.77L54.6066 28.32L51.9366 30.42L52.3566 33.81ZM36.0066 24C29.3766 24 24.0066 29.37 24.0066 36C24.0066 42.63 29.3766 48 36.0066 48C42.6366 48 48.0066 42.63 48.0066 36C48.0066 29.37 42.6366 24 36.0066 24ZM36.0066 42C32.7066 42 30.0066 39.3 30.0066 36C30.0066 32.7 32.7066 30 36.0066 30C39.3066 30 42.0066 32.7 42.0066 36C42.0066 39.3 39.3066 42 36.0066 42Z" fill="#06BEE1"/>
</svg>
